<?xml version="1.0" standalone="no"?>
<!DOCTYPE svg PUBLIC "-//W3C//DTD SVG 20010904//EN"
 "http://www.w3.org/TR/2001/REC-SVG-20010904/DTD/svg10.dtd">
<svg version="1.0" xmlns="http://www.w3.org/2000/svg"
 width="360.000000pt" height="360.000000pt" viewBox="0 0 360.000000 360.000000"
 preserveAspectRatio="xMidYMid meet">

<g transform="translate(0.000000,360.000000) scale(0.100000,-0.100000)"
fill="#000000" stroke="none">
<path d="M1773 3149 c-47 -14 -101 -73 -110 -123 l-9 -41 -176 -3 -177 -2 -3
-58 -3 -57 -210 -2 c-116 0 -218 -1 -227 -2 -17 -1 -18 -66 -18 -1216 l0
-1215 959 0 959 0 6 23 c10 38 7 2381 -4 2397 -8 12 -42 15 -202 15 l-193 0
-5 55 -5 55 -177 3 -178 2 0 28 c0 42 -49 110 -96 132 -43 21 -80 24 -131 9z
m135 -45 c29 -19 62 -73 62 -101 0 -34 -27 -28 -35 7 -10 44 -58 80 -107 80
-32 0 -47 -7 -74 -34 -19 -19 -34 -43 -34 -55 0 -12 -6 -21 -15 -21 -10 0 -15
10 -15 29 0 35 42 88 85 107 35 16 99 10 133 -12z m422 -239 l0 -85 -500 0
-500 0 0 85 0 85 500 0 500 0 0 -85z m-1040 -60 l0 -25 -185 0 -185 0 0 -1135
0 -1135 883 2 882 3 0 1130 0 1130 -160 5 c-152 5 -160 6 -160 25 0 19 8 20
183 23 l182 2 -2 -1182 -3 -1183 -925 0 -925 0 -3 1170 c-1 644 0 1176 3 1183
3 9 55 12 210 12 l205 0 0 -25z m12 -112 l3 -58 525 0 525 0 3 58 3 57 144 0
145 0 0 -1105 0 -1105 -847 2 -848 3 -3 1090 c-1 600 0 1096 3 1103 3 9 48 12
174 12 l170 0 3 -57z m1028 17 l0 -40 -490 0 c-269 0 -493 -1 -497 -2 -5 -2
-9 16 -11 40 l-3 42 500 0 501 0 0 -40z"/>
<path d="M2117 2422 c-15 -16 -17 -46 -17 -210 0 -186 1 -191 22 -206 18 -13
55 -16 198 -16 143 0 180 3 198 16 21 15 22 20 22 209 0 189 -1 194 -22 209
-18 13 -56 16 -204 16 -163 0 -183 -2 -197 -18z m371 -18 c22 -6 22 -8 22
-190 l0 -184 -190 0 -190 0 0 184 c0 138 3 186 13 189 17 8 318 8 345 1z"/>
<path d="M2346 2250 c-43 -44 -82 -80 -85 -80 -4 0 -15 16 -25 35 -20 37 -56
48 -56 18 0 -22 61 -123 75 -123 6 0 55 45 109 99 69 69 97 104 93 115 -11 28
-31 17 -111 -64z"/>
<path d="M1117 2252 c-22 -24 -21 -55 1 -75 17 -15 55 -17 344 -17 302 0 326
1 341 18 21 23 22 56 1 76 -13 14 -59 16 -343 16 -305 0 -329 -1 -344 -18z
m670 -28 c3 -9 0 -20 -8 -25 -8 -5 -151 -9 -319 -9 -309 0 -336 3 -323 36 4
12 62 14 324 14 284 0 320 -2 326 -16z"/>
<path d="M2117 1742 c-15 -16 -17 -46 -17 -210 0 -186 1 -191 22 -206 18 -13
55 -16 198 -16 143 0 180 3 198 16 21 15 22 20 22 208 0 174 -2 195 -18 209
-16 15 -45 17 -204 17 -166 0 -187 -2 -201 -18z m381 -20 c9 -7 12 -51 10
-188 l-3 -179 -185 0 -185 0 -3 179 c-2 137 1 181 10 188 7 4 87 8 178 8 91 0
171 -4 178 -8z"/>
<path d="M2346 1570 c-44 -44 -82 -80 -86 -80 -3 0 -14 16 -23 35 -17 36 -57
50 -57 20 0 -23 60 -125 74 -125 6 0 56 45 110 99 69 69 97 104 93 115 -11 29
-32 17 -111 -64z"/>
<path d="M1117 1572 c-22 -24 -21 -55 1 -75 17 -15 55 -17 344 -17 302 0 326
1 341 18 20 22 22 63 5 80 -9 9 -99 12 -343 12 -309 0 -333 -1 -348 -18z m670
-28 c3 -9 0 -20 -8 -25 -18 -11 -620 -11 -638 0 -8 5 -11 16 -8 25 6 14 42 16
327 16 285 0 321 -2 327 -16z"/>
<path d="M2117 1062 c-15 -16 -17 -46 -17 -210 0 -186 1 -191 22 -206 33 -23
363 -23 396 0 21 15 22 20 22 208 0 174 -2 195 -18 209 -16 15 -45 17 -204 17
-166 0 -187 -2 -201 -18z m391 -204 l2 -188 -190 0 -190 0 0 183 c0 101 3 187
7 191 4 3 88 5 187 4 l181 -3 3 -187z"/>
<path d="M1117 892 c-23 -26 -21 -58 5 -76 19 -14 69 -16 344 -16 298 0 322 1
337 18 23 25 22 69 -2 82 -13 6 -140 10 -344 10 -301 0 -325 -1 -340 -18z
m670 -28 c3 -9 0 -20 -8 -25 -21 -14 -625 -7 -640 8 -30 30 4 33 322 33 284 0
320 -2 326 -16z"/>
</g>
</svg>
