<?xml version="1.0" standalone="no"?>
<!DOCTYPE svg PUBLIC "-//W3C//DTD SVG 20010904//EN"
 "http://www.w3.org/TR/2001/REC-SVG-20010904/DTD/svg10.dtd">
<svg version="1.0" xmlns="http://www.w3.org/2000/svg"
 width="166.000000pt" height="160.000000pt" viewBox="0 0 166.000000 160.000000"
 preserveAspectRatio="xMidYMid meet">

<g transform="translate(0.000000,160.000000) scale(0.100000,-0.100000)"
fill="#000000" stroke="none">
<path d="M760 1574 c-213 -32 -315 -70 -445 -165 -121 -88 -224 -229 -272
-374 -23 -71 -27 -96 -27 -220 -1 -105 3 -156 17 -205 74 -272 281 -472 560
-545 353 -91 710 22 908 286 179 241 198 580 48 836 -44 74 -188 218 -262 262
-84 49 -212 97 -292 109 -86 13 -201 21 -235 16z m-359 -170 c-124 -93 -222
-229 -267 -369 -36 -110 -44 -291 -19 -397 43 -176 150 -336 300 -445 73 -53
61 -56 -21 -5 -167 103 -275 252 -324 447 -19 77 -22 106 -17 200 6 122 23
188 72 285 63 125 166 237 285 309 60 36 55 23 -9 -25z m884 0 c299 -198 408
-586 255 -911 -39 -84 -76 -137 -146 -206 -54 -54 -189 -145 -199 -135 -2 2
23 24 57 48 121 89 226 230 275 372 31 89 42 257 24 364 -31 178 -141 352
-301 477 -50 39 -28 33 35 -9z m-339 -285 c69 -33 121 -85 156 -157 30 -61 33
-74 32 -157 0 -76 -4 -99 -27 -145 -54 -114 -169 -194 -277 -194 -108 -1 -223
82 -277 201 -29 63 -36 178 -15 249 29 101 119 189 226 223 66 20 108 16 182
-20z m107 -10 c59 -31 118 -93 149 -157 29 -59 33 -76 33 -147 0 -90 -20 -145
-76 -215 -32 -40 -125 -107 -135 -98 -2 3 11 17 30 32 111 84 154 253 105 412
-18 57 -31 79 -78 127 -61 60 -63 64 -28 46z m-480 -52 c-67 -70 -88 -132 -88
-257 0 -84 3 -102 29 -158 20 -43 46 -78 80 -108 63 -55 48 -57 -25 -5 -155
111 -192 301 -89 459 34 53 110 122 133 122 6 0 -13 -24 -40 -53z"/>
</g>
</svg>
