<?xml version="1.0" standalone="no"?>
<!DOCTYPE svg PUBLIC "-//W3C//DTD SVG 20010904//EN"
 "http://www.w3.org/TR/2001/REC-SVG-20010904/DTD/svg10.dtd">
<svg version="1.0" xmlns="http://www.w3.org/2000/svg"
 width="171.000000pt" height="116.000000pt" viewBox="0 0 171.000000 116.000000"
 preserveAspectRatio="xMidYMid meet">

<g transform="translate(0.000000,116.000000) scale(0.100000,-0.100000)"
fill="#000000" stroke="none">
<path d="M590 805 c0 -45 4 -65 13 -65 9 0 8 -3 -2 -9 -11 -7 -14 -68 -19
-295 l-5 -286 -283 0 -284 0 0 -70 0 -70 285 0 285 0 0 70 0 70 495 0 494 0
-2 143 -2 142 -208 3 -208 2 3 215 3 215 -282 0 -283 0 0 -65z m367 -337 c-3
-8 -6 -5 -6 6 -1 11 2 17 5 13 3 -3 4 -12 1 -19z"/>
</g>
</svg>
