<?xml version="1.0" encoding="UTF-8"?>
<svg version="1.1" xmlns="http://www.w3.org/2000/svg" width="360" height="360">
<path d="M0 0 C1.64935547 0.01353516 1.64935547 0.01353516 3.33203125 0.02734375 C6.01311708 0.05065754 8.69408898 0.08651802 11.375 0.125 C11.87 5.57 11.87 5.57 12.375 11.125 C13.365 7.825 14.355 4.525 15.375 1.125 C20.62486802 0.92702058 25.26491972 1.5945436 30.3125 2.9375 C31.01181641 3.11764648 31.71113281 3.29779297 32.43164062 3.48339844 C37.22131669 4.74442685 41.80658858 6.22149524 46.375 8.125 C46.1584375 8.95644531 45.941875 9.78789063 45.71875 10.64453125 C45.4403125 11.73121094 45.161875 12.81789063 44.875 13.9375 C44.5965625 15.01644531 44.318125 16.09539062 44.03125 17.20703125 C43.26529052 20.11433975 43.26529052 20.11433975 43.375 23.125 C47.83 17.68 47.83 17.68 52.375 12.125 C63.19302111 14.28860422 70.65694016 21.70040251 78.375 29.125 C75.7485883 31.90818461 73.22713615 34.0018839 69.92578125 35.9296875 C69.07693359 36.43113281 68.22808594 36.93257812 67.35351562 37.44921875 C66.47373047 37.96097656 65.59394531 38.47273438 64.6875 39 C62.95309504 40.01595856 61.22001316 41.03417932 59.48828125 42.0546875 C58.63830566 42.55323242 57.78833008 43.05177734 56.91259766 43.56542969 C53.61529062 45.59190624 50.48582301 47.828839 47.37182617 50.12548828 C45.375 51.125 45.375 51.125 43.25805664 50.87329102 C40.77541004 49.88673431 38.80991977 48.47440785 36.625 46.9375 C31.93753997 43.87771788 27.28211444 41.69141261 22.0625 39.75 C21.3931543 39.49968018 20.72380859 39.24936035 20.03417969 38.99145508 C5.30287432 33.71218682 -9.05147963 35.78395138 -23.625 40.125 C-22.3875 39.795 -21.15 39.465 -19.875 39.125 C-0.5075033 35.2901253 16.67924073 38.71851088 33.0625 49.5 C33.825625 50.03625 34.58875 50.5725 35.375 51.125 C33.84736536 55.21096252 31.26415809 56.92326179 27.75 59.375 C26.74710937 60.08140625 25.74421875 60.7878125 24.7109375 61.515625 C23.94007813 62.04671875 23.16921875 62.5778125 22.375 63.125 C23.08785156 63.48851562 23.80070312 63.85203125 24.53515625 64.2265625 C35.86553521 70.17386774 41.38176413 75.09431761 46.375 87.125 C47.29920787 90.1734325 47.49672207 92.89683734 47.48852539 96.07714844 C47.48844986 97.05786316 47.48837433 98.03857788 47.48829651 99.04901123 C47.48313522 100.10018127 47.47797394 101.15135132 47.47265625 102.234375 C47.47053383 103.85729462 47.47053383 103.85729462 47.46836853 105.51300049 C47.46277318 108.9670285 47.4502215 112.42099159 47.4375 115.875 C47.4324844 118.21744698 47.4279216 120.55989498 47.42382812 122.90234375 C47.41280528 128.6432513 47.39607174 134.38412101 47.375 140.125 C45.20492915 136.86989372 44.25591366 133.76307621 43.2109375 130.05078125 C42.8504834 128.79950439 42.4900293 127.54822754 42.11865234 126.2590332 C41.44116943 123.87237427 41.44116943 123.87237427 40.75 121.4375 C39.30625 116.384375 37.8625 111.33125 36.375 106.125 C25.815 105.135 15.255 104.145 4.375 103.125 C7.68492192 110.71050371 7.68492192 110.71050371 13.7578125 114.40234375 C18.37402908 115.67697072 23.12506338 115.9945143 27.88671875 116.33984375 C32.31245384 117.33600585 33.70668246 118.46491842 36.375 122.125 C37.55943382 125.23040933 38.29462915 128.38128758 39 131.625 C40.5815429 139.34279313 40.5815429 139.34279313 44.375 146.125 C45.21933594 146.59808594 46.06367188 147.07117188 46.93359375 147.55859375 C50.24796959 149.68509729 50.48796767 151.41145283 51.4375 155.1875 C51.91123047 157.03988281 51.91123047 157.03988281 52.39453125 158.9296875 C52.72430231 160.32743272 53.05094568 161.72591835 53.375 163.125 C53.55981934 163.90649414 53.74463867 164.68798828 53.93505859 165.49316406 C57.375 180.12092506 57.375 180.12092506 57.375 184.125 C39.63782722 181.55828169 13.54939457 175.29939457 0.375 162.125 C-0.05903384 156.67434253 0.08299622 152.13875828 2.375 147.125 C2.54298262 144.41613059 2.54298262 144.41613059 2.375 142.125 C-4.28992101 139.6129933 -10.57283711 139.19920236 -17.625 140.125 C-21.96468387 142.1151311 -24.71915385 144.96438462 -27.625 148.6875 C-33.32296678 155.63189701 -41.96272204 158.35405173 -50.65039062 159.359375 C-58.47883288 160.08956154 -65.83183942 160.27954231 -73.625 159.125 C-72.84125 158.25875 -72.0575 157.3925 -71.25 156.5 C-61.16407053 144.70906817 -54.28984263 133.58379879 -50.67578125 118.47265625 C-46.24223223 99.99468766 -40.75978026 79.65554661 -23.8125 68.8125 C-18.65399505 65.93240159 -13.23562889 63.93832112 -7.625 62.125 C-12.62682643 63.47795305 -17.19710236 64.75978466 -21.625 67.5 C-24.87797057 69.18145596 -26.66779881 69.24734531 -30.1875 68.25 C-32.01457832 67.5801663 -33.82538359 66.86545469 -35.625 66.125 C-36.92529205 65.60684359 -38.22610918 65.09000365 -39.52734375 64.57421875 C-41.56485688 63.76445344 -43.59831516 62.9485782 -45.62329102 62.10791016 C-49.01002125 60.62330563 -49.01002125 60.62330563 -52.625 60.125 C-58.93119337 67.76319461 -61.74624135 77.93752953 -61.7578125 87.6953125 C-61.75910156 88.7575 -61.76039062 89.8196875 -61.76171875 90.9140625 C-61.75591797 92.56535156 -61.75591797 92.56535156 -61.75 94.25 C-61.75386719 95.32765625 -61.75773437 96.4053125 -61.76171875 97.515625 C-61.75337746 104.43889475 -61.38009181 111.24317237 -60.625 118.125 C-63.82430232 118.83568284 -66.77508102 119.24622244 -70.05078125 119.22265625 C-70.84677734 119.21943359 -71.64277344 119.21621094 -72.46289062 119.21289062 C-73.27951172 119.20451172 -74.09613281 119.19613281 -74.9375 119.1875 C-75.77345703 119.18298828 -76.60941406 119.17847656 -77.47070312 119.17382812 C-79.52216649 119.16210548 -81.57359273 119.14417203 -83.625 119.125 C-84.12731221 117.86704864 -84.62190792 116.60601441 -85.11328125 115.34375 C-85.38954346 114.64185547 -85.66580566 113.93996094 -85.95043945 113.21679688 C-86.83708109 110.46734137 -86.83975303 107.98837379 -86.625 105.125 C-84.645 104.135 -84.645 104.135 -82.625 103.125 C-84.605 102.465 -86.585 101.805 -88.625 101.125 C-89.5416135 90.199958 -90.06123194 79.92117852 -87.625 69.125 C-85.65677114 67.15677114 -82.27691291 67.46251619 -79.625 67.125 C-81.935 66.135 -84.245 65.145 -86.625 64.125 C-83.08321827 53.38995362 -79.30564312 42.69187117 -71.625 34.125 C-70.696875 34.3725 -70.696875 34.3725 -69.75 34.625 C-67.66436614 35.20134644 -67.66436614 35.20134644 -65.625 35.125 C-66.615 34.135 -67.605 33.145 -68.625 32.125 C-63.64441784 21.1341961 -49.45659729 12.41611203 -38.625 8.125 C-35.22058351 8.5093696 -33.24774255 9.97060433 -30.625 12.125 C-31.285 10.145 -31.945 8.165 -32.625 6.125 C-31.17183309 5.48808004 -29.7120304 4.86630205 -28.25 4.25 C-27.43789062 3.90195313 -26.62578125 3.55390625 -25.7890625 3.1953125 C-17.20581327 0.29184301 -9.00975605 -0.14231692 0 0 Z " fill="#FDB203" transform="translate(185.625,88.875)"/>
<path d="M0 0 C1.64935547 0.01353516 1.64935547 0.01353516 3.33203125 0.02734375 C6.01311708 0.05065754 8.69408898 0.08651802 11.375 0.125 C11.87 5.57 11.87 5.57 12.375 11.125 C13.365 7.825 14.355 4.525 15.375 1.125 C20.62486802 0.92702058 25.26491972 1.5945436 30.3125 2.9375 C31.01181641 3.11764648 31.71113281 3.29779297 32.43164062 3.48339844 C37.22131669 4.74442685 41.80658858 6.22149524 46.375 8.125 C46.1584375 8.95644531 45.941875 9.78789063 45.71875 10.64453125 C45.4403125 11.73121094 45.161875 12.81789063 44.875 13.9375 C44.5965625 15.01644531 44.318125 16.09539062 44.03125 17.20703125 C43.26529052 20.11433975 43.26529052 20.11433975 43.375 23.125 C47.83 17.68 47.83 17.68 52.375 12.125 C63.19302111 14.28860422 70.65694016 21.70040251 78.375 29.125 C75.7485883 31.90818461 73.22713615 34.0018839 69.92578125 35.9296875 C69.07693359 36.43113281 68.22808594 36.93257812 67.35351562 37.44921875 C66.47373047 37.96097656 65.59394531 38.47273438 64.6875 39 C62.95309504 40.01595856 61.22001316 41.03417932 59.48828125 42.0546875 C58.63830566 42.55323242 57.78833008 43.05177734 56.91259766 43.56542969 C53.61529062 45.59190624 50.48582301 47.828839 47.37182617 50.12548828 C45.375 51.125 45.375 51.125 43.25805664 50.87329102 C40.77541004 49.88673431 38.80991977 48.47440785 36.625 46.9375 C31.93753997 43.87771788 27.28211444 41.69141261 22.0625 39.75 C21.3931543 39.49968018 20.72380859 39.24936035 20.03417969 38.99145508 C5.42825181 33.75711844 -9.19389775 35.5908019 -23.625 40.125 C-24.67429687 40.44082031 -25.72359375 40.75664062 -26.8046875 41.08203125 C-38.51670788 45.22939125 -50.38059849 55.34422445 -56.625 66.125 C-59.77982352 73.16493026 -61.74863822 79.95877689 -61.7578125 87.6953125 C-61.75910156 88.7575 -61.76039062 89.8196875 -61.76171875 90.9140625 C-61.75591797 92.56535156 -61.75591797 92.56535156 -61.75 94.25 C-61.75386719 95.32765625 -61.75773437 96.4053125 -61.76171875 97.515625 C-61.75337746 104.43889475 -61.38009181 111.24317237 -60.625 118.125 C-63.82430232 118.83568284 -66.77508102 119.24622244 -70.05078125 119.22265625 C-70.84677734 119.21943359 -71.64277344 119.21621094 -72.46289062 119.21289062 C-73.27951172 119.20451172 -74.09613281 119.19613281 -74.9375 119.1875 C-75.77345703 119.18298828 -76.60941406 119.17847656 -77.47070312 119.17382812 C-79.52216649 119.16210548 -81.57359273 119.14417203 -83.625 119.125 C-84.12731221 117.86704864 -84.62190792 116.60601441 -85.11328125 115.34375 C-85.38954346 114.64185547 -85.66580566 113.93996094 -85.95043945 113.21679688 C-86.83708109 110.46734137 -86.83975303 107.98837379 -86.625 105.125 C-84.645 104.135 -84.645 104.135 -82.625 103.125 C-84.605 102.465 -86.585 101.805 -88.625 101.125 C-89.5416135 90.199958 -90.06123194 79.92117852 -87.625 69.125 C-85.65677114 67.15677114 -82.27691291 67.46251619 -79.625 67.125 C-81.935 66.135 -84.245 65.145 -86.625 64.125 C-83.08321827 53.38995362 -79.30564312 42.69187117 -71.625 34.125 C-70.696875 34.3725 -70.696875 34.3725 -69.75 34.625 C-67.66436614 35.20134644 -67.66436614 35.20134644 -65.625 35.125 C-66.615 34.135 -67.605 33.145 -68.625 32.125 C-63.64441784 21.1341961 -49.45659729 12.41611203 -38.625 8.125 C-35.22058351 8.5093696 -33.24774255 9.97060433 -30.625 12.125 C-31.285 10.145 -31.945 8.165 -32.625 6.125 C-31.17183309 5.48808004 -29.7120304 4.86630205 -28.25 4.25 C-27.43789062 3.90195313 -26.62578125 3.55390625 -25.7890625 3.1953125 C-17.20581327 0.29184301 -9.00975605 -0.14231692 0 0 Z " fill="#8C011C" transform="translate(185.625,88.875)"/>
<path d="M0 0 C0.495 2.475 0.495 2.475 1 5 C0.45472656 4.80664062 -0.09054688 4.61328125 -0.65234375 4.4140625 C-1.78349609 4.02347656 -1.78349609 4.02347656 -2.9375 3.625 C-3.66839844 3.36976563 -4.39929688 3.11453125 -5.15234375 2.8515625 C-12.44595855 0.67048153 -19.19544625 -0.33276193 -26.8125 -0.25 C-28.11429199 -0.24419922 -28.11429199 -0.24419922 -29.44238281 -0.23828125 C-36.09528129 -0.14914677 -42.50083295 0.52051482 -49 2 C-37.89076746 -9.10923254 -12.6725756 -4.22419187 0 0 Z " fill="#FFF9E2" transform="translate(209,128)"/>
<path d="M0 0 C0 0.33 0 0.66 0 1 C-0.79921875 1.14695313 -1.5984375 1.29390625 -2.421875 1.4453125 C-9.76673397 2.94531891 -15.93913677 5.13878416 -22.5390625 8.6953125 C-25 10 -25 10 -28 11 C-28 10.34 -28 9.68 -28 9 C-28.66 9 -29.32 9 -30 9 C-30 8.34 -30 7.68 -30 7 C-29.01 6.9175 -28.02 6.835 -27 6.75 C-23.99399336 6.33266709 -21.73684758 5.48705346 -19.0625 4.0625 C-12.81885158 0.74782179 -7.02221909 -0.29259246 0 0 Z " fill="#FFFDB3" transform="translate(185,150)"/>
</svg>
