<?xml version="1.0" encoding="UTF-8"?>
<svg version="1.1" xmlns="http://www.w3.org/2000/svg" width="260" height="260">
<path d="M0 0 C0 6.27 0 12.54 0 19 C-4.269375 19.5878125 -4.269375 19.5878125 -8.625 20.1875 C-25.87921906 22.83325513 -39.89655132 29.43813352 -53 41 C-53.495 41.99 -53.495 41.99 -54 43 C-54.66 43 -55.32 43 -56 43 C-56.26296875 43.56847656 -56.5259375 44.13695312 -56.796875 44.72265625 C-58.08577679 47.16236322 -59.59675518 49.22945005 -61.25 51.4375 C-73.07182072 68.20970814 -77.36693666 88.53468824 -73.9375 108.6875 C-71.54169373 121.34715814 -66.05001592 132.95561076 -58 143 C-57.46890625 143.69351563 -56.9378125 144.38703125 -56.390625 145.1015625 C-45.25928331 158.83021725 -27.39559384 167.67166667 -10 170 C10.96749137 171.94838218 30.58236216 166.99430153 47.4375 154.125 C65.66704126 138.36881358 73.31561241 119.42738258 76 96 C82.27 96 88.54 96 95 96 C94.09417965 124.08043081 82.96967365 147.33720289 62.7109375 166.6953125 C47.67216627 180.47363146 26.41823374 189.131942 6 190 C5.18917969 190.03996094 4.37835938 190.07992187 3.54296875 190.12109375 C-23.04482033 190.78286888 -47.2876336 180.87474266 -66.64941406 162.80151367 C-73.38679451 156.27908775 -78.34835491 149.10794711 -83 141 C-83.56460938 140.04738281 -84.12921875 139.09476563 -84.7109375 138.11328125 C-95.7282171 118.06406939 -98.02045242 92.49388455 -91.8125 70.63671875 C-87.23580562 55.60869477 -80.649519 42.65764903 -70 31 C-69.30261719 30.22140625 -68.60523437 29.4428125 -67.88671875 28.640625 C-50.42322882 10.123579 -25.27938828 0 0 0 Z " fill="#627FDC" transform="translate(130,35)"/>
<path d="M0 0 C4.45221846 2.49426388 8.33706795 5.51452386 12.3125 8.6875 C12.95767578 9.19861328 13.60285156 9.70972656 14.26757812 10.23632812 C15.8471295 11.48826884 17.42385369 12.74377514 19 14 C18.40780712 17.0783964 17.51743713 18.92792824 15.515625 21.328125 C14.7412207 22.26785156 14.7412207 22.26785156 13.95117188 23.2265625 C13.38978516 23.89429687 12.82839844 24.56203125 12.25 25.25 C11.0571132 26.69256078 9.8644099 28.1352733 8.671875 29.578125 C8.06021484 30.31353516 7.44855469 31.04894531 6.81835938 31.80664062 C4.0191938 35.18307773 1.26050523 38.59194804 -1.5 42 C-2.58311238 43.33351283 -3.66644645 44.66684563 -4.75 46 C-5.28625 46.66 -5.8225 47.32 -6.375 48 C-8 50 -9.625 52 -11.25 54 C-11.78616943 54.65991943 -12.32233887 55.31983887 -12.87475586 55.99975586 C-13.95882948 57.33396273 -15.04297669 58.66810981 -16.12719727 60.00219727 C-18.82480891 63.32168067 -21.52116108 66.64217103 -24.21484375 69.96484375 C-30.40630043 77.59853237 -36.63553016 85.19875831 -42.90112305 92.77172852 C-46.12010872 96.67526025 -49.28417849 100.61234807 -52.3828125 104.61206055 C-54.5654673 107.42651596 -56.78065185 110.21445726 -59 113 C-59.42764648 113.5451123 -59.85529297 114.09022461 -60.29589844 114.65185547 C-68.09341447 124.47696178 -68.09341447 124.47696178 -73.8125 125.375 C-77.62962075 125.5325547 -79.91111569 124.17224476 -83 122 C-89.13249304 116.08727207 -94.39907902 109.34838362 -99.60522461 102.62475586 C-103.37744198 97.75820697 -107.26325983 92.99455861 -111.1875 88.25 C-111.78087158 87.52901123 -112.37424316 86.80802246 -112.9855957 86.06518555 C-115.53480946 82.9693304 -118.09107479 79.88294169 -120.703125 76.83984375 C-121.44046875 75.96457031 -122.1778125 75.08929688 -122.9375 74.1875 C-123.87916016 73.09501953 -123.87916016 73.09501953 -124.83984375 71.98046875 C-126 70 -126 70 -125.76123047 68.0625 C-124.8724379 65.65437954 -123.92057024 64.67898028 -121.98046875 63.01953125 C-121.37009766 62.49552734 -120.75972656 61.97152344 -120.13085938 61.43164062 C-119.16889648 60.63016602 -119.16889648 60.63016602 -118.1875 59.8125 C-117.55779297 59.26658203 -116.92808594 58.72066406 -116.27929688 58.15820312 C-113.19929058 55.55005509 -111.03893328 53.76561439 -107 53 C-105.67903033 54.62580882 -104.35806364 56.25162007 -103.03710938 57.87744141 C-101.87569994 59.30684311 -100.71424063 60.7362043 -99.55273438 62.16552734 C-96.50665775 65.91410334 -93.46136478 69.66330974 -90.41796875 73.4140625 C-89.84457764 74.12046875 -89.27118652 74.826875 -88.68041992 75.5546875 C-87.58782353 76.90078911 -86.49552213 78.24713022 -85.40356445 79.59375 C-84.89913818 80.21507813 -84.39471191 80.83640625 -83.875 81.4765625 C-83.39546875 82.06856445 -82.9159375 82.66056641 -82.421875 83.27050781 C-81.4667671 84.43224963 -80.49767952 85.58262566 -79.515625 86.72167969 C-76 90.80266854 -76 90.80266854 -76 93 C-75.34 93 -74.68 93 -74 93 C-73.75378906 92.44441406 -73.50757813 91.88882813 -73.25390625 91.31640625 C-71.75995594 88.55655412 -69.94941592 86.34683141 -67.9375 83.9375 C-66.7309375 82.4834375 -66.7309375 82.4834375 -65.5 81 C-64.675 80.01 -63.85 79.02 -63 78 C-61.4769558 76.14764895 -59.95606549 74.29352449 -58.4375 72.4375 C-57.68726563 71.52097656 -56.93703125 70.60445313 -56.1640625 69.66015625 C-54.19812369 67.24354193 -52.25152467 64.81322039 -50.3125 62.375 C-46.65774786 57.78835887 -42.92531757 53.26886904 -39.1875 48.75 C-34.35912484 42.91100482 -29.62606102 37.01176229 -24.97558594 31.03051758 C-21.46119809 26.53279936 -17.79260723 22.18470213 -14.078125 17.85180664 C-9.1573053 12.07677673 -4.56857399 6.05509481 0 0 Z " fill="#F7BF18" transform="translate(205,37)"/>
<path d="M0 0 C1.43088528 2.86177057 0.59991697 4.93375773 0 8 C-0.99 7.34 -1.98 6.68 -3 6 C-2.42655063 3.13275314 -2.1385485 2.1385485 0 0 Z " fill="#EFC137" transform="translate(82,101)"/>
<path d="M0 0 C0.625 1.8125 0.625 1.8125 1 4 C0.01 5.485 0.01 5.485 -1 7 C-1.99 6.34 -2.98 5.68 -4 5 C-2.68 3.35 -1.36 1.7 0 0 Z " fill="#F3C12C" transform="translate(181,67)"/>
</svg>
